<svg width="688" height="590" viewBox="0 0 688 590" fill="none" xmlns="http://www.w3.org/2000/svg">
<path opacity="0.4" d="M624.607 41.4102C479.832 -27.4825 415.969 160.909 316.138 191.906C216.394 237.253 120.215 184.176 60.8283 229.674C-33.3064 301.794 8.01039 427.963 68.2737 481.05C154.694 557.18 308.272 529.78 467.012 447.462C665.894 344.329 751.55 101.817 624.607 41.4102Z" fill="#98C3E8"/>
<path opacity="0.2" d="M143.5 116.5C148.5 129 133.5 148.5 112 155C93.4998 160.593 75.4998 160 70.4998 147C66.0767 135.5 79.9998 123 95.9998 116.5C112 110 138.5 104 143.5 116.5Z" fill="#98C3E8"/>
<path opacity="0.2" d="M307 91C303.109 81.0604 316.816 57.8658 333.802 52.7986C348.419 48.4383 362.111 38.1637 366 48.5C369.44 57.6437 358.909 78.3246 346.26 83.415C333.612 88.5054 310.891 100.94 307 91Z" fill="#98C3E8"/>
<path opacity="0.2" d="M295.792 583.215C291.901 573.276 303.816 557.866 320.802 552.799C335.419 548.438 349.614 548.985 353.503 559.321C356.944 568.465 345.908 578.325 333.26 583.415C320.612 588.505 299.684 593.155 295.792 583.215Z" fill="#98C3E8"/>
<path opacity="0.2" d="M471.573 532.55C463.478 513.52 489.279 471.235 524.573 461.55C554.942 453.216 603.982 470.26 612.072 490.05C619.229 507.555 572.353 504.66 546.074 514.393C519.795 524.126 479.667 551.579 471.573 532.55Z" fill="#98C3E8"/>
<mask id="mask0_0_1548" style="mask-type:alpha" maskUnits="userSpaceOnUse" x="20" y="30" width="648" height="490">
<path d="M606.962 42.9443C466.39 -19.131 410.042 163.479 315.141 196.024C220.694 242.339 127.118 194.084 71.3641 239.416C-17.0125 311.272 25.8608 431.217 85.0062 480.486C169.824 551.139 316.342 520.544 466.39 437.093C654.38 332.539 730.22 97.3739 606.962 42.9443Z" fill="#98C3E8"/>
</mask>
<g mask="url(#mask0_0_1548)">
<rect x="-85.083" y="-50.5983" width="805.162" height="681.485" fill="url(#paint0_linear_0_1548)"/>
<path d="M16.5085 166.467C90.336 203.697 172.998 307.904 172.998 357.662C172.998 418.869 43.221 512.678 -16.3037 565.893L491.655 598.705C473.566 517.726 427.894 337.7 455.688 297.716C491.655 245.974 637.207 258.594 718.816 268.059L740.902 37.7424C701.148 54.3588 612.177 102.105 563.589 89.4847C518.615 77.8031 432.34 27.4359 395.742 -4.53494" stroke="white" stroke-opacity="0.2" stroke-width="15"/>
<path d="M206.441 109.677C226.634 214.844 281.531 407.637 339.583 337.469C412.149 249.76 469.57 136.179 523.837 211.269C567.25 271.34 631.107 389.843 657.61 441.585" stroke="white" stroke-opacity="0.2" stroke-width="15"/>
<path fill-rule="evenodd" clip-rule="evenodd" d="M434 171C434 175.418 430.418 179 426 179C421.582 179 418 175.418 418 171C418 166.582 421.582 163 426 163C430.418 163 434 166.582 434 171ZM103 344C107.418 344 111 340.418 111 336C111 331.582 107.418 328 103 328C98.5817 328 95 331.582 95 336C95 340.418 98.5817 344 103 344ZM277 446C281.418 446 285 442.418 285 438C285 433.582 281.418 430 277 430C272.582 430 269 433.582 269 438C269 442.418 272.582 446 277 446ZM551 328C555.418 328 559 324.418 559 320C559 315.582 555.418 312 551 312C546.582 312 543 315.582 543 320C543 324.418 546.582 328 551 328Z" fill="white" fill-opacity="0.6"/>
<circle cx="73" cy="423" r="18" stroke="white" stroke-opacity="0.4" stroke-width="8"/>
<circle cx="653" cy="146" r="18" stroke="white" stroke-opacity="0.4" stroke-width="8"/>
<circle cx="403" cy="379" r="18" stroke="white" stroke-opacity="0.4" stroke-width="8"/>
</g>
<g filter="url(#filter0_d_0_1548)">
<rect x="453" y="100" width="88" height="88" rx="10" fill="white"/>
</g>
<path d="M493 160V148H501V160H511V144H517L497 126L477 144H483V160H493Z" fill="#5A98D0"/>
<g filter="url(#filter1_d_0_1548)">
<path d="M440.423 10H412.992C409.207 10 406.139 13.0475 406.139 16.8068V44.0493C406.139 47.8086 409.207 50.8561 412.992 50.8561H440.423C444.208 50.8561 447.277 47.8086 447.277 44.0493V16.8068C447.277 13.0475 444.208 10 440.423 10Z" fill="#56CCF2"/>
</g>
<path d="M437 29H432.83L436.07 25.76L434.66 24.34L430 29H428V27L432.66 22.34L431.24 20.93L428 24.17V20H426V24.17L422.76 20.93L421.34 22.34L426 27V29H424L419.34 24.34L417.93 25.76L421.17 29H417V31H421.17L417.93 34.24L419.34 35.66L424 31H426V33L421.34 37.66L422.76 39.07L426 35.83V40H428V35.83L431.24 39.07L432.66 37.66L428 33V31H430L434.66 35.66L436.07 34.24L432.83 31H437V29Z" fill="white"/>
<g filter="url(#filter2_d_0_1548)">
<path d="M614.284 113H586.854C583.069 113 580 116.048 580 119.807V147.049C580 150.809 583.069 153.856 586.854 153.856H614.284C618.07 153.856 621.138 150.809 621.138 147.049V119.807C621.138 116.048 618.07 113 614.284 113Z" fill="#F2C94C"/>
</g>
<path d="M610 130C610 125 606 121 601 121C596 121 592 125 592 130C592 133.1 593.6 135.9 596 137.5V140C596 141.3 596.8 142.4 598 142.8V143C598 144.7 599.3 146 601 146C602.7 146 604 144.7 604 143V142.8C605.2 142.4 606 141.3 606 140V137.5C608.4 135.9 610 133.1 610 130ZM594 130C594 126.1 597.1 123 601 123C604.9 123 608 126.1 608 130C608 133.5 605.4 136.4 602 136.9V134.4L603.7 132.7C604.1 132.3 604.1 131.7 603.7 131.3C603.3 130.9 602.7 130.9 602.3 131.3L601 132.6L599.7 131.3C599.3 130.9 598.7 130.9 598.3 131.3C597.9 131.7 597.9 132.3 598.3 132.7L600 134.4V136.9C596.6 136.4 594 133.5 594 130ZM601 144C600.4 144 600 143.6 600 143H602C602 143.6 601.6 144 601 144ZM604 140C604 140.6 603.6 141 603 141H599C598.4 141 598 140.6 598 140V138.5C598.9 138.8 599.9 139 601 139C602.1 139 603.1 138.8 604 138.5V140Z" fill="white"/>
<g filter="url(#filter3_d_0_1548)">
<path d="M394.284 113H366.854C363.069 113 360 116.048 360 119.807V147.049C360 150.809 363.069 153.856 366.854 153.856H394.284C398.07 153.856 401.138 150.809 401.138 147.049V119.807C401.138 116.048 398.07 113 394.284 113Z" fill="#F58A8A"/>
</g>
<path d="M387 129H386V127C386 124.24 383.76 122 381 122C378.24 122 376 124.24 376 127V129H375C373.9 129 373 129.9 373 131V141C373 142.1 373.9 143 375 143H387C388.1 143 389 142.1 389 141V131C389 129.9 388.1 129 387 129ZM381 138C379.9 138 379 137.1 379 136C379 134.9 379.9 134 381 134C382.1 134 383 134.9 383 136C383 137.1 382.1 138 381 138ZM384.1 129H377.9V127C377.9 125.29 379.29 123.9 381 123.9C382.71 123.9 384.1 125.29 384.1 127V129Z" fill="white"/>
<g filter="url(#filter4_d_0_1548)">
<path d="M568.284 10H540.854C537.069 10 534 13.0475 534 16.8068V44.0493C534 47.8086 537.069 50.8561 540.854 50.8561H568.284C572.07 50.8561 575.138 47.8086 575.138 44.0493V16.8068C575.138 13.0475 572.07 10 568.284 10Z" fill="#6FCF97"/>
</g>
<path d="M560.311 24.8964H543.979V35.1033H560.311V24.8964Z" fill="white"/>
<path d="M564.713 26.9276L561.108 28.4427V31.6002L564.713 33.1153H566.02V26.9276H564.713Z" fill="white"/>
<path d="M500.39 183C499.274 187.364 500.787 189.88 501.978 190.5C504.34 191.73 506.977 193.27 506.977 193.27C506.977 193.27 523.406 221.414 528.168 223.429C533.724 225.778 546.422 227 546.422 227L551.978 215.889C551.978 215.889 539.279 213.111 533.724 211.921C529.98 211.118 513.486 193.27 513.486 193.27L516.66 187.714H510.708C506.343 184.54 503.977 178 503.977 178C503.977 178 501.153 180.02 500.39 183Z" fill="url(#paint1_linear_0_1548)"/>
<path d="M565.478 233.5C563.478 231.5 551.978 228.333 546.478 227L551.978 216C554.144 216 560.478 215.5 568.478 213.5C578.478 211 581.978 202 593.478 211.5C602.678 219.1 618.644 252.333 625.478 268C614.731 278.243 607.594 281.569 593.478 284.5C592.644 282.833 590.178 277.2 586.978 268C582.978 256.5 570.478 256.5 568.478 252.5C566.478 248.5 567.978 236 565.478 233.5Z" fill="url(#paint2_linear_0_1548)"/>
<path d="M601.478 347C597.878 339 597.811 301 596.478 283.5C608.671 281.103 615.111 278.016 625.478 267.5C625.478 267.5 642.478 275.5 641.478 294C640.478 312.5 647.998 321.841 652.478 328C656.478 333.5 665.978 345.167 670.978 353L665.978 362.5C660.478 356.667 644.378 344.8 635.978 338C627.578 331.2 624.811 314.167 623.478 305C622.644 314.667 618.478 332.4 620.478 338C622.478 343.6 643.978 360.5 652.478 369L649.478 377.5C634.978 370.667 605.078 355 601.478 347Z" fill="url(#paint3_linear_0_1548)"/>
<path d="M559.477 199.5C559.877 197.9 559.311 193.167 559.978 191.5C564.778 192.3 567.477 195.667 568.477 197C569.477 196.833 570.912 196.369 571.477 197.5C571.977 198.5 571.477 200.5 569.977 202L573.477 211.5C571.819 212.577 570.809 212.939 568.977 213.5C569.977 211 569.477 209 568.977 208C565.377 210.8 563.977 210.667 562.477 210.5L560.977 204L558.478 204.5C558.978 203.667 559.077 201.1 559.477 199.5Z" fill="url(#paint4_linear_0_1548)"/>
<path d="M568.477 197C566.477 194.2 561.644 192.167 559.477 191.5C555.477 188.5 557.477 182 566.977 179C576.477 176 580.477 184 582.477 186C584.477 188 585.477 194.5 594.477 198.5C603.477 202.5 602.977 197.5 608.477 197.5C613.977 197.5 616.477 201 615.477 204C614.477 207 613.977 210.5 619.977 214.5C625.977 218.5 620.477 224 619.977 230C619.477 236 611.477 233 602.977 233C594.477 233 595.977 233 594.477 227.5C592.977 222 590.477 220 587.477 218.5C584.477 217 577.477 218 575.977 216.5C574.777 215.3 571.477 206.333 569.977 202C570.644 201 571.877 198.7 571.477 197.5C571.077 196.3 569.31 196.667 568.477 197Z" fill="#F2994A"/>
<path d="M549.478 257.5L573.478 256C576.278 256.4 580.978 259.833 582.978 261.5C582.311 263 580.378 266 577.978 266C575.578 266 557.978 263 549.478 261.5H547.478V254L549.478 257.5Z" fill="url(#paint5_linear_0_1548)"/>
<path d="M547.478 265V248H538.978V265H547.478Z" fill="#F2C94C"/>
<path d="M665.978 391.5C663.578 391.1 653.811 381.833 649.478 377.5L652.478 369C654.478 369.833 658.678 371.3 659.478 372.5C660.478 374 668.978 392 665.978 391.5Z" fill="#5A98D0"/>
<path d="M677.978 380.5C676.778 378.5 669.478 368.833 665.978 362.5L670.978 353C673.311 355 673.478 355 675.978 358.5C677.14 360.127 679.478 383 677.978 380.5Z" fill="#5A98D0"/>
<path opacity="0.2" d="M626.478 290.5L623.478 305.5C623.978 311 626.978 324.5 631.978 334C625.978 315 627.978 300.833 626.478 290.5Z" fill="black"/>
<path d="M196 515L194.5 510L202.5 508.5C206.333 510.5 213.7 514.9 212.5 516.5C212.1 517.3 201.333 515.833 196 515Z" fill="#D06262"/>
<path d="M155.5 468L160 475.5C159.667 480.667 158.6 490.8 157 490C155.4 489.2 150.333 476.333 148 470L155.5 468Z" fill="#D06262"/>
<path d="M129.328 422.993C123.999 417.458 119.156 407.024 117.401 402.5C122.529 400.019 133.924 394.352 138.484 391.522C143.044 388.693 151.693 382.274 155.447 379.418C157.637 381.392 164.01 386.262 171.981 389.948C192.452 399.613 204.145 412.095 208.185 423.272C211.418 432.213 198.175 445.449 190.651 450.994C186.292 443.586 183.669 440.59 178.501 433.534L180.257 425.338L169.933 422.271C171.459 424.307 176.461 431.01 184.258 441.54C198.328 459.125 203.2 489.172 203.878 501.997C201.253 502.573 194.79 503.636 189.937 503.279C189.364 497.05 181.559 483.211 174.106 470.959C172.59 472.773 170.489 474.942 169.265 475.054C163.07 473.214 161.151 465.089 160.966 461.256L165.648 457.335C165.006 456.31 164.406 455.349 163.856 454.463C156.193 442.113 135.99 429.912 129.328 422.993Z" fill="#1F3F68"/>
<path d="M157.347 378.239C142.813 389.451 112.728 409.557 108.662 400.291C103.58 388.708 104.576 388.616 101.766 385.36C98.9555 382.103 98.2686 374.635 96.998 371.739C96.3594 370.284 91.211 363.917 87.0954 356.08C87.0954 356.08 86.9717 355.853 86.7625 355.439C83.8406 349.737 81.5329 343.32 81.9125 337.477C82.2029 328.914 88.7162 323.391 88.7162 323.391C92.5981 319.253 96.2389 318.558 97.5 318.669L97.5233 318.685C100.558 320.749 105.045 323.8 106.634 323.654C108.228 323.508 110.5 320.5 112 319C119.606 319.807 121.929 317.859 127.874 318.669C135.205 319.669 155 330 170.5 302.5C172.04 302.861 175.511 304.229 178 304C169.5 329 162 336.781 155 339.231C149.628 341.112 145.395 341.636 142.052 341.602C141.438 344.863 140.623 350.224 139.263 355.691C142.058 360.807 145.012 365.505 147.332 367.612C153.358 373.083 160.163 376.102 157.347 378.239Z" fill="white"/>
<path d="M157.062 407.89L170.477 422.723L180.258 425.338L179.674 429.911C181.919 427.027 184.797 420.101 178.346 415.472C171.895 410.844 161.469 408.489 157.062 407.89Z" fill="black" fill-opacity="0.2"/>
<path d="M165.625 457.313L173.923 471.111L172.567 472.742C171.342 470.344 168.126 468.129 165.408 465.869C163.233 464.061 162.777 460.922 162.821 459.579L165.625 457.313Z" fill="black" fill-opacity="0.2"/>
<path d="M127.067 382.028C112.87 380.522 95.6038 365.675 88.7456 358.439C104.604 372.546 123.032 376.374 128.87 374.331C133.54 372.696 137.12 360.527 139.001 355.5L142.799 362.003C143.471 369.306 141.265 383.534 127.067 382.028Z" fill="black" fill-opacity="0.2"/>
<path d="M121.967 353.877C118.82 354.452 110.674 347.551 107.019 344.206C120.474 354.014 120.5 349 137.5 337C136.762 338.072 129.5 352.5 121.967 353.877Z" fill="black" fill-opacity="0.2"/>
<path d="M142.5 339.5C140.787 339.156 139.296 338.576 137.5 337L139 333.5C138.833 332.667 138.6 330.8 139 330C139.4 329.2 141 328.333 141.5 328L141 330.5L143.5 327.5L147.5 331L147 334.5L144 336L142.5 339.5Z" fill="#F2994A"/>
<path d="M179 299L178 304C176.4 304.4 172.167 303.167 170.5 302.5C171 301 172.6 297 173 295C173.4 293 177.167 290.833 179 290H181L179 293.5V299Z" fill="#F2994A"/>
<path d="M94.9997 308.5C95.7997 310.1 97.9997 313.5 98.9997 315C99.6664 313.667 100.6 310.7 98.9997 309.5C97.3997 308.3 95.9997 306.333 95.4998 305.5C95.9998 305.167 97.2998 304.5 98.4998 304.5C97.6998 298.5 101.833 296.333 104 296L112.5 295.5L113 298C116.166 295 121.9 288.5 119.5 286.5C116.5 284 107.5 290.5 101.5 290.5C95.4998 290.5 92.9997 293.5 91.4997 296.5C89.9997 299.5 93.9997 306.5 94.9997 308.5Z" fill="#316099"/>
<path d="M106.5 324C104.9 324 100.333 320.833 97.5 319C98.8333 318.333 99.5 315.8 99.5 315C99.5 314 100.5 310 99.5 309.5C98.5 309 95.5 307 95.5 306C95.5 305.2 97.5 305 98.5 305C98.1667 303.333 98.1 299.5 100.5 297.5C102.9 295.5 109.5 295.333 112.5 295.5C112.667 296.167 113.3 299 114.5 305C115.7 311 113 313.833 111.5 314.5L112 319C110.833 320.5 108.1 324 106.5 324Z" fill="#F2994A"/>
<path d="M202.5 508.5L202 502.5C198.469 503.446 196.371 503.613 192.5 503.5L194.5 510L202.5 508.5Z" fill="#98C3E8"/>
<path d="M160 475.5L166 473.5C163.322 470.423 162.421 468.668 161.5 465.5L155.5 468L160 475.5Z" fill="#98C3E8"/>
<rect opacity="0.8" x="187" y="228" width="266.284" height="189.301" rx="5" fill="url(#paint6_linear_0_1548)"/>
<path d="M187 233C187 230.239 189.239 228 192 228H263.983V417.301H192C189.239 417.301 187 415.063 187 412.301V233Z" fill="white"/>
<circle cx="199" cy="240" r="4" fill="#FA9595"/>
<circle cx="212" cy="240" r="4" fill="#FDF397"/>
<circle cx="224" cy="240" r="4" fill="#C1FEBB"/>
<path opacity="0.4" fill-rule="evenodd" clip-rule="evenodd" d="M196 334H254V341H196V334ZM196 348H254V355H196V348ZM235 364H196V371H235V364Z" fill="#5A98D0"/>
<path opacity="0.1" fill-rule="evenodd" clip-rule="evenodd" d="M373 253H431V260H373V253ZM373 267H431V274H373V267ZM412 283H373V290H412V283Z" fill="black"/>
<g filter="url(#filter5_d_0_1548)">
<rect x="179" y="254" width="81" height="50" rx="5" fill="#56CCF2"/>
</g>
<path d="M203.344 276.136C202.688 275.24 201.76 274.792 200.544 274.792C199.44 274.792 198.512 275.192 197.728 276.008C196.944 276.824 196.56 277.816 196.56 279C196.56 280.168 196.944 281.176 197.728 281.992C198.512 282.808 199.44 283.208 200.544 283.208C201.76 283.208 202.688 282.76 203.344 281.848V283H205.072V275H203.344V276.136ZM199.008 280.84C198.528 280.344 198.288 279.736 198.288 279C198.288 278.264 198.528 277.656 199.008 277.176C199.488 276.68 200.096 276.44 200.816 276.44C201.536 276.44 202.144 276.68 202.624 277.176C203.104 277.656 203.344 278.264 203.344 279C203.344 279.736 203.104 280.344 202.624 280.84C202.144 281.32 201.536 281.56 200.816 281.56C200.096 281.56 199.488 281.32 199.008 280.84ZM212.078 271.592C209.71 271.448 208.462 272.648 208.462 274.84V275H207.246V276.664H208.462V283H210.19V276.664H212.078V275H210.19V274.84C210.19 273.672 210.814 273.144 212.078 273.256V271.592ZM215.617 275H213.889V283H215.617V278.968C215.617 278.152 215.857 277.56 216.353 277.208C216.849 276.84 217.425 276.68 218.081 276.728V274.856C216.881 274.856 216.049 275.352 215.617 276.344V275ZM221.79 273.48C222.238 273.032 222.238 272.36 221.806 271.928C221.374 271.48 220.67 271.48 220.238 271.928C219.806 272.36 219.806 273.032 220.238 273.48C220.686 273.912 221.358 273.912 221.79 273.48ZM221.886 283V275H220.158V283H221.886ZM231.028 276.136C230.372 275.24 229.444 274.792 228.228 274.792C227.124 274.792 226.196 275.192 225.412 276.008C224.628 276.824 224.244 277.816 224.244 279C224.244 280.168 224.628 281.176 225.412 281.992C226.196 282.808 227.124 283.208 228.228 283.208C229.444 283.208 230.372 282.76 231.028 281.848V283H232.756V275H231.028V276.136ZM226.692 280.84C226.212 280.344 225.972 279.736 225.972 279C225.972 278.264 226.212 277.656 226.692 277.176C227.172 276.68 227.78 276.44 228.5 276.44C229.22 276.44 229.828 276.68 230.308 277.176C230.788 277.656 231.028 278.264 231.028 279C231.028 279.736 230.788 280.344 230.308 280.84C229.828 281.32 229.22 281.56 228.5 281.56C227.78 281.56 227.172 281.32 226.692 280.84ZM239.779 274.792C238.643 274.792 237.827 275.208 237.299 276.024V275H235.571V283H237.299V278.712C237.299 277.16 238.115 276.408 239.331 276.408C240.435 276.408 241.123 277.064 241.123 278.264V283H242.851V278.088C242.851 276.04 241.619 274.792 239.779 274.792Z" fill="white"/>
<rect x="281" y="246" width="79" height="77" rx="5" fill="#EB5757"/>
<g clip-path="url(#clip0_0_1548)">
<path d="M312 271V299L334 285L312 271Z" fill="white"/>
</g>
<g filter="url(#filter6_d_0_1548)">
<rect x="281" y="336" width="154" height="63" rx="5" fill="#6FCF97"/>
</g>
<path d="M294.5 381C304 374.5 308 366 326 366C344 366 345.58 376 356.5 376C369.5 376 382 356.5 396 356.5C410 356.5 413.5 366.5 421 367" stroke="black" stroke-opacity="0.1" stroke-width="2" stroke-linecap="round" stroke-linejoin="round"/>
<path d="M294 381.5C303.5 375 306 356 324 356C342 356 346.08 372.5 357 372.5C370 372.5 381.5 345.5 395.5 345.5C409.5 345.5 414 366.5 421.5 367" stroke="white" stroke-width="2" stroke-linecap="round" stroke-linejoin="round"/>
<defs>
<filter id="filter0_d_0_1548" x="403" y="50" width="188" height="188" filterUnits="userSpaceOnUse" color-interpolation-filters="sRGB">
<feFlood flood-opacity="0" result="BackgroundImageFix"/>
<feColorMatrix in="SourceAlpha" type="matrix" values="0 0 0 0 0 0 0 0 0 0 0 0 0 0 0 0 0 0 127 0" result="hardAlpha"/>
<feOffset/>
<feGaussianBlur stdDeviation="25"/>
<feColorMatrix type="matrix" values="0 0 0 0 0.0627451 0 0 0 0 0.439216 0 0 0 0 0.694118 0 0 0 0.25 0"/>
<feBlend mode="normal" in2="BackgroundImageFix" result="effect1_dropShadow_0_1548"/>
<feBlend mode="normal" in="SourceGraphic" in2="effect1_dropShadow_0_1548" result="shape"/>
</filter>
<filter id="filter1_d_0_1548" x="396.139" y="0" width="71.1377" height="70.8561" filterUnits="userSpaceOnUse" color-interpolation-filters="sRGB">
<feFlood flood-opacity="0" result="BackgroundImageFix"/>
<feColorMatrix in="SourceAlpha" type="matrix" values="0 0 0 0 0 0 0 0 0 0 0 0 0 0 0 0 0 0 127 0" result="hardAlpha"/>
<feOffset dx="5" dy="5"/>
<feGaussianBlur stdDeviation="7.5"/>
<feColorMatrix type="matrix" values="0 0 0 0 0 0 0 0 0 0 0 0 0 0 0 0 0 0 0.15 0"/>
<feBlend mode="normal" in2="BackgroundImageFix" result="effect1_dropShadow_0_1548"/>
<feBlend mode="normal" in="SourceGraphic" in2="effect1_dropShadow_0_1548" result="shape"/>
</filter>
<filter id="filter2_d_0_1548" x="570" y="103" width="71.1377" height="70.8561" filterUnits="userSpaceOnUse" color-interpolation-filters="sRGB">
<feFlood flood-opacity="0" result="BackgroundImageFix"/>
<feColorMatrix in="SourceAlpha" type="matrix" values="0 0 0 0 0 0 0 0 0 0 0 0 0 0 0 0 0 0 127 0" result="hardAlpha"/>
<feOffset dx="5" dy="5"/>
<feGaussianBlur stdDeviation="7.5"/>
<feColorMatrix type="matrix" values="0 0 0 0 0 0 0 0 0 0 0 0 0 0 0 0 0 0 0.15 0"/>
<feBlend mode="normal" in2="BackgroundImageFix" result="effect1_dropShadow_0_1548"/>
<feBlend mode="normal" in="SourceGraphic" in2="effect1_dropShadow_0_1548" result="shape"/>
</filter>
<filter id="filter3_d_0_1548" x="350" y="103" width="71.1377" height="70.8561" filterUnits="userSpaceOnUse" color-interpolation-filters="sRGB">
<feFlood flood-opacity="0" result="BackgroundImageFix"/>
<feColorMatrix in="SourceAlpha" type="matrix" values="0 0 0 0 0 0 0 0 0 0 0 0 0 0 0 0 0 0 127 0" result="hardAlpha"/>
<feOffset dx="5" dy="5"/>
<feGaussianBlur stdDeviation="7.5"/>
<feColorMatrix type="matrix" values="0 0 0 0 0 0 0 0 0 0 0 0 0 0 0 0 0 0 0.15 0"/>
<feBlend mode="normal" in2="BackgroundImageFix" result="effect1_dropShadow_0_1548"/>
<feBlend mode="normal" in="SourceGraphic" in2="effect1_dropShadow_0_1548" result="shape"/>
</filter>
<filter id="filter4_d_0_1548" x="524" y="0" width="71.1377" height="70.8561" filterUnits="userSpaceOnUse" color-interpolation-filters="sRGB">
<feFlood flood-opacity="0" result="BackgroundImageFix"/>
<feColorMatrix in="SourceAlpha" type="matrix" values="0 0 0 0 0 0 0 0 0 0 0 0 0 0 0 0 0 0 127 0" result="hardAlpha"/>
<feOffset dx="5" dy="5"/>
<feGaussianBlur stdDeviation="7.5"/>
<feColorMatrix type="matrix" values="0 0 0 0 0 0 0 0 0 0 0 0 0 0 0 0 0 0 0.15 0"/>
<feBlend mode="normal" in2="BackgroundImageFix" result="effect1_dropShadow_0_1548"/>
<feBlend mode="normal" in="SourceGraphic" in2="effect1_dropShadow_0_1548" result="shape"/>
</filter>
<filter id="filter5_d_0_1548" x="174" y="249" width="101" height="70" filterUnits="userSpaceOnUse" color-interpolation-filters="sRGB">
<feFlood flood-opacity="0" result="BackgroundImageFix"/>
<feColorMatrix in="SourceAlpha" type="matrix" values="0 0 0 0 0 0 0 0 0 0 0 0 0 0 0 0 0 0 127 0" result="hardAlpha"/>
<feOffset dx="5" dy="5"/>
<feGaussianBlur stdDeviation="5"/>
<feColorMatrix type="matrix" values="0 0 0 0 0.0627451 0 0 0 0 0.439216 0 0 0 0 0.694118 0 0 0 0.2 0"/>
<feBlend mode="normal" in2="BackgroundImageFix" result="effect1_dropShadow_0_1548"/>
<feBlend mode="normal" in="SourceGraphic" in2="effect1_dropShadow_0_1548" result="shape"/>
</filter>
<filter id="filter6_d_0_1548" x="271" y="330" width="174" height="83" filterUnits="userSpaceOnUse" color-interpolation-filters="sRGB">
<feFlood flood-opacity="0" result="BackgroundImageFix"/>
<feColorMatrix in="SourceAlpha" type="matrix" values="0 0 0 0 0 0 0 0 0 0 0 0 0 0 0 0 0 0 127 0" result="hardAlpha"/>
<feOffset dy="4"/>
<feGaussianBlur stdDeviation="5"/>
<feColorMatrix type="matrix" values="0 0 0 0 0.435294 0 0 0 0 0.811765 0 0 0 0 0.592157 0 0 0 0.2 0"/>
<feBlend mode="normal" in2="BackgroundImageFix" result="effect1_dropShadow_0_1548"/>
<feBlend mode="normal" in="SourceGraphic" in2="effect1_dropShadow_0_1548" result="shape"/>
</filter>
<linearGradient id="paint0_linear_0_1548" x1="375.616" y1="-96.3187" x2="337.792" y2="574.507" gradientUnits="userSpaceOnUse">
<stop stop-color="#D1ECFF"/>
<stop offset="1" stop-color="#1070B1"/>
</linearGradient>
<linearGradient id="paint1_linear_0_1548" x1="559.735" y1="190.576" x2="507.964" y2="224.395" gradientUnits="userSpaceOnUse">
<stop stop-color="#FFF8E1"/>
<stop offset="1" stop-color="#FFCC80"/>
</linearGradient>
<linearGradient id="paint2_linear_0_1548" x1="585.978" y1="207.241" x2="585.978" y2="284.5" gradientUnits="userSpaceOnUse">
<stop stop-color="#AF6CED"/>
<stop offset="1" stop-color="#5E199D"/>
</linearGradient>
<linearGradient id="paint3_linear_0_1548" x1="633.728" y1="267.5" x2="633.728" y2="377.5" gradientUnits="userSpaceOnUse">
<stop stop-color="#EB5757"/>
<stop offset="1" stop-color="#872727"/>
</linearGradient>
<linearGradient id="paint4_linear_0_1548" x1="575.716" y1="197.146" x2="557.595" y2="204.755" gradientUnits="userSpaceOnUse">
<stop stop-color="#FFF8E1"/>
<stop offset="1" stop-color="#FFCC80"/>
</linearGradient>
<linearGradient id="paint5_linear_0_1548" x1="588.276" y1="257.08" x2="576.596" y2="278.359" gradientUnits="userSpaceOnUse">
<stop stop-color="#FFF8E1"/>
<stop offset="1" stop-color="#FFCC80"/>
</linearGradient>
<linearGradient id="paint6_linear_0_1548" x1="193.393" y1="297.155" x2="498.893" y2="330.655" gradientUnits="userSpaceOnUse">
<stop offset="0.127122" stop-color="white"/>
<stop offset="0.972261" stop-color="white" stop-opacity="0.8"/>
</linearGradient>
<clipPath id="clip0_0_1548">
<rect width="48" height="48" fill="white" transform="translate(296 261)"/>
</clipPath>
</defs>
</svg>
